<?xml version="1.0" standalone="no"?><!DOCTYPE svg PUBLIC "-//W3C//DTD SVG 1.1//EN" "http://www.w3.org/Graphics/SVG/1.1/DTD/svg11.dtd"><svg t="1668909527798" class="icon" viewBox="0 0 1024 1024" version="1.1" xmlns="http://www.w3.org/2000/svg" p-id="5384" xmlns:xlink="http://www.w3.org/1999/xlink" width="200" height="200"><path d="M930.909091 512a418.909091 418.909091 0 1 1-837.818182 0 418.909091 418.909091 0 0 1 837.818182 0z m-46.545455 0q0-71.028364-26.158545-137.076364-28.392727-71.68-82.897455-126.231272-54.551273-54.504727-126.231272-82.897455Q582.981818 139.636364 512 139.636364q-71.028364 0-137.076364 26.158545-71.68 28.392727-126.231272 82.897455-54.504727 54.551273-82.897455 126.231272Q139.636364 441.018182 139.636364 512q0 71.028364 26.158545 137.076364 28.392727 71.68 82.897455 126.231272 54.551273 54.504727 126.231272 82.897455Q441.018182 884.363636 512 884.363636q71.028364 0 137.076364-26.158545 71.68-28.392727 126.231272-82.897455 54.504727-54.551273 82.897455-126.231272Q884.363636 582.981818 884.363636 512z" fill="#000000" p-id="5385"></path><path d="M722.478545 71.400727q82.664727-32.349091 129.396364 3.165091 72.471273 55.016727 14.754909 227.141818-53.899636 160.581818-190.836363 340.945455-137.309091 180.829091-277.597091 277.085091-151.086545 103.610182-223.418182 48.686545-49.152-37.329455-36.445091-133.678545l46.173091 6.050909q-9.216 69.585455 18.432 90.577454 19.921455 15.127273 61.067636 4.328728 46.359273-12.148364 107.845818-54.365091 134.050909-91.973818 266.891637-266.845091 132.328727-174.266182 183.761454-327.633455 23.458909-70.004364 22.341818-117.713454-1.024-42.263273-21.08509-57.530182-25.972364-19.688727-84.340364 3.165091l-16.942546-43.380364z m26.996364 35.746909q-1.396364 1.861818-3.072 3.351273-1.722182 1.536-3.723636 2.699636-1.954909 1.163636-4.142546 1.861819-2.141091 0.791273-4.421818 1.070545-2.280727 0.325818-4.561454 0.186182-2.327273-0.139636-4.51491-0.698182-2.234182-0.605091-4.282181-1.582545-2.048-1.024-3.863273-2.420364-1.861818-1.396364-3.351273-3.072-1.536-1.722182-2.699636-3.723636-1.163636-1.954909-1.861818-4.142546-0.791273-2.141091-1.070546-4.421818-0.325818-2.280727-0.186182-4.561455 0.139636-2.327273 0.698182-4.514909 0.605091-2.234182 1.629091-4.282181 0.977455-2.048 2.327273-3.863273 1.396364-1.861818 3.118545-3.351273 1.722182-1.536 3.723637-2.699636 1.954909-1.163636 4.142545-1.861818 2.141091-0.791273 4.421818-1.070546 2.327273-0.325818 4.561455-0.186182 2.327273 0.139636 4.514909 0.698182 2.234182 0.605091 4.282182 1.629091 2.048 0.977455 3.863272 2.327273 1.861818 1.396364 3.351273 3.165091 1.536 1.675636 2.699637 3.677091 1.163636 1.954909 1.861818 4.142545 0.791273 2.187636 1.070545 4.421818 0.325818 2.327273 0.186182 4.561455-0.139636 2.327273-0.698182 4.514909-0.605091 2.234182-1.582545 4.282182-1.024 2.048-2.420364 3.863272z m-569.530182 744.727273q-1.396364 1.815273-3.118545 3.304727-1.675636 1.536-3.677091 2.699637-2.001455 1.163636-4.142546 1.861818-2.187636 0.791273-4.421818 1.070545-2.327273 0.325818-4.561454 0.186182-2.327273-0.139636-4.514909-0.698182-2.234182-0.605091-4.282182-1.582545-2.048-1.024-3.909818-2.420364-1.815273-1.396364-3.304728-3.072-1.536-1.722182-2.699636-3.723636-1.163636-1.954909-1.861818-4.142546-0.791273-2.141091-1.117091-4.421818-0.279273-2.280727-0.139636-4.561454 0.139636-2.327273 0.698181-4.514909 0.605091-2.234182 1.582546-4.282182 1.024-2.048 2.420363-3.863273 1.396364-1.861818 3.072-3.351273 1.722182-1.536 3.723637-2.699636 1.954909-1.163636 4.142545-1.861818 2.141091-0.791273 4.421818-1.070546 2.280727-0.325818 4.561455-0.186181 2.327273 0.139636 4.514909 0.698181 2.187636 0.605091 4.282182 1.629091 2.048 0.977455 3.863273 2.327273 1.861818 1.396364 3.351272 3.165091 1.536 1.675636 2.699637 3.677091 1.117091 1.954909 1.861818 4.142545 0.791273 2.187636 1.070545 4.421818 0.325818 2.327273 0.186182 4.561455-0.139636 2.327273-0.744727 4.514909-0.558545 2.234182-1.582546 4.282182-0.977455 2.048-2.373818 3.863273z" fill="#FF2222" p-id="5386"></path><path d="M177.803636 478.161455q17.221818-120.971636 100.072728-199.773091l32.116363 33.745454Q238.778182 379.810909 223.883636 484.724364l-46.08-6.516364z m46.312728 3.258181q0 2.327273-0.465455 4.561455-0.465455 2.280727-1.303273 4.375273-0.884364 2.141091-2.141091 4.049454-1.303273 1.861818-2.885818 3.490909-1.629091 1.629091-3.537454 2.885818-1.908364 1.303273-4.049455 2.187637-2.094545 0.884364-4.328727 1.303273-2.280727 0.465455-4.561455 0.465454-2.327273 0-4.514909-0.465454-2.280727-0.465455-4.375272-1.303273-2.141091-0.930909-4.049455-2.187637-1.861818-1.256727-3.490909-2.885818-1.629091-1.629091-2.932364-3.490909-1.256727-1.908364-2.141091-4.049454-0.884364-2.094545-1.303272-4.375273-0.465455-2.234182-0.465455-4.514909 0-2.327273 0.465455-4.561455t1.303272-4.375272q0.884364-2.094545 2.141091-4.00291 1.303273-1.908364 2.932364-3.537454 1.582545-1.629091 3.490909-2.885818 1.908364-1.256727 4.049455-2.141091 2.094545-0.930909 4.375272-1.349818 2.234182-0.465455 4.514909-0.465455 2.327273 0 4.561455 0.465455t4.328727 1.349818q2.141091 0.884364 4.049455 2.141091 1.861818 1.256727 3.537454 2.885818 1.582545 1.629091 2.885818 3.537454 1.256727 1.861818 2.141091 4.00291 0.884364 2.141091 1.303273 4.375272 0.465455 2.234182 0.465455 4.561455z m93.090909-186.181818q0 2.327273-0.465455 4.561455-0.465455 2.280727-1.303273 4.375272-0.884364 2.141091-2.14109 4.049455-1.303273 1.861818-2.885819 3.490909-1.629091 1.629091-3.537454 2.885818-1.908364 1.303273-4.049455 2.187637-2.094545 0.884364-4.328727 1.303272-2.280727 0.465455-4.561455 0.465455-2.327273 0-4.514909-0.465455-2.280727-0.465455-4.375272-1.303272-2.141091-0.930909-4.049455-2.187637-1.861818-1.256727-3.490909-2.885818-1.629091-1.629091-2.932364-3.490909-1.256727-1.908364-2.141091-4.049455-0.884364-2.094545-1.303272-4.375272-0.465455-2.234182-0.465455-4.514909 0-2.327273 0.465455-4.561455t1.303272-4.375273q0.884364-2.094545 2.141091-4.002909 1.303273-1.908364 2.932364-3.537454 1.582545-1.629091 3.490909-2.885818 1.908364-1.256727 4.049455-2.141091 2.094545-0.930909 4.375272-1.349819 2.234182-0.465455 4.514909-0.465454 2.327273 0 4.561455 0.465454t4.328727 1.349819q2.141091 0.884364 4.049455 2.141091 1.861818 1.256727 3.537454 2.885818 1.582545 1.629091 2.885819 3.537454 1.256727 1.861818 2.14109 4.002909 0.884364 2.141091 1.303273 4.375273 0.465455 2.234182 0.465455 4.561455z" fill="#000000" p-id="5387"></path></svg>